<?xml version="1.0" standalone="no"?>
<!DOCTYPE svg PUBLIC "-//W3C//DTD SVG 20010904//EN"
 "http://www.w3.org/TR/2001/REC-SVG-20010904/DTD/svg10.dtd">
<svg version="1.0" xmlns="http://www.w3.org/2000/svg"
 width="500.000000pt" height="500.000000pt" viewBox="0 0 500.000000 500.000000"
 preserveAspectRatio="xMidYMid meet">

<g transform="translate(0.000000,500.000000) scale(0.100000,-0.100000)"
fill="#000000" stroke="none">
<path d="M2335 3856 c-79 -18 -161 -44 -320 -101 -74 -26 -153 -48 -183 -50
-29 -1 -54 -4 -56 -6 -1 -2 -10 -34 -19 -72 -9 -37 -30 -87 -46 -110 -45 -66
-128 -117 -190 -117 -55 0 -55 0 -59 -415 -7 -643 29 -903 158 -1155 106 -204
198 -294 465 -453 94 -55 222 -133 286 -174 64 -40 121 -73 128 -73 7 0 38 17
69 38 31 21 162 101 291 178 304 181 402 269 503 454 142 260 190 622 172
1278 -10 329 -8 322 -67 322 -42 0 -98 27 -140 68 -54 53 -76 92 -91 163 l-13
63 -75 13 c-41 7 -131 33 -199 58 -196 73 -296 96 -434 101 -79 2 -141 -1
-180 -10z m315 -42 c45 -8 165 -44 266 -79 101 -35 204 -67 229 -70 42 -7 45
-9 51 -44 9 -51 50 -130 87 -169 37 -39 110 -79 164 -90 l38 -8 7 -249 c25
-842 -59 -1232 -322 -1495 -69 -69 -102 -92 -360 -245 -91 -55 -198 -120 -238
-145 l-74 -47 -162 101 c-90 56 -221 135 -291 176 -195 114 -302 223 -389 398
-79 158 -127 358 -146 612 -11 145 -12 618 -1 790 l6 104 38 8 c61 13 111 44
165 103 47 52 61 80 87 181 2 6 25 15 51 19 27 4 98 25 159 47 148 54 289 97
350 107 82 14 197 12 285 -5z"/>
<path d="M2485 3610 c-4 -13 -15 -20 -32 -20 -25 0 -25 -1 -10 -18 10 -10 17
-28 17 -40 0 -24 7 -27 29 -13 9 6 22 6 33 0 15 -8 18 -6 18 12 0 12 7 31 17
41 15 17 15 18 -5 18 -12 0 -27 9 -34 20 -7 11 -16 20 -20 20 -4 0 -10 -9 -13
-20z"/>
<path d="M2340 3555 c0 -8 -7 -15 -16 -15 -9 0 -13 -5 -10 -12 3 -7 9 -21 12
-30 5 -13 13 -16 33 -11 31 7 27 3 35 36 5 23 3 27 -14 27 -11 0 -20 5 -20 10
0 6 -4 10 -10 10 -5 0 -10 -7 -10 -15z"/>
<path d="M2645 3560 c-4 -6 -15 -10 -26 -10 -16 0 -18 -4 -11 -16 5 -9 7 -24
5 -33 -7 -28 49 -21 64 7 10 19 9 26 -7 42 -11 11 -22 15 -25 10z"/>
<path d="M2088 3289 c-28 -16 -22 -52 12 -71 34 -19 40 -48 10 -48 -11 0 -20
7 -20 15 0 16 -12 20 -23 8 -12 -12 15 -33 43 -33 58 0 64 52 10 82 -16 9 -30
22 -30 28 0 13 27 13 35 0 9 -15 25 -12 25 5 0 8 -4 15 -9 15 -5 0 -15 2 -23
5 -7 2 -21 0 -30 -6z"/>
<path d="M2205 3225 l0 -65 30 1 c17 0 24 3 18 6 -7 2 -13 17 -13 31 l1 27 27
-33 c15 -18 36 -32 47 -32 11 0 15 3 10 8 -6 4 -22 22 -35 41 l-24 34 28 24
27 23 -25 0 c-17 0 -24 -4 -20 -13 2 -7 -4 -22 -16 -32 -20 -18 -20 -18 -20 8
0 14 6 28 13 30 6 3 -1 6 -18 6 l-30 1 0 -65z"/>
<path d="M2356 3282 c16 -10 44 -68 44 -91 0 -10 -6 -22 -12 -24 -7 -3 5 -5
27 -5 22 0 34 2 28 5 -21 8 -15 47 12 87 l24 36 -27 -1 c-15 0 -22 -3 -15 -5
9 -4 9 -13 1 -36 l-11 -31 -14 27 c-8 14 -11 31 -8 36 4 6 -8 10 -27 10 -18 0
-28 -4 -22 -8z"/>
<path d="M2518 3278 c7 -7 12 -30 12 -53 0 -23 -5 -46 -12 -53 -9 -9 -5 -12
18 -11 16 0 23 3 17 6 -8 3 -13 23 -13 51 l0 47 35 -53 c20 -28 40 -52 44 -52
5 0 11 29 13 65 3 60 1 65 -17 65 -15 0 -16 -3 -7 -9 8 -5 12 -22 10 -42 l-3
-34 -30 42 c-21 30 -37 42 -54 43 -20 0 -22 -3 -13 -12z"/>
<path d="M2688 3283 c7 -3 12 -25 12 -58 0 -33 -5 -55 -12 -58 -7 -3 13 -6 45
-6 47 -1 57 2 57 16 0 13 -3 14 -12 5 -22 -22 -48 -14 -48 13 0 18 5 25 20 25
11 0 20 5 20 10 0 6 -9 10 -20 10 -13 0 -20 7 -20 20 0 22 35 28 43 8 3 -8 6
-6 6 5 1 14 -8 17 -51 16 -29 0 -47 -3 -40 -6z"/>
<path d="M2820 3275 c0 -8 5 -15 10 -15 6 0 10 5 10 10 0 6 7 10 15 10 19 0
21 -90 3 -108 -9 -9 -5 -12 17 -12 l30 0 -3 60 c-4 59 3 71 26 48 9 -9 12 -8
12 5 0 14 -10 17 -60 17 -47 0 -60 -3 -60 -15z"/>
<path d="M1670 2965 c0 -77 20 -105 73 -105 57 0 71 19 75 99 3 48 1 71 -7 71
-7 0 -11 -25 -11 -68 0 -72 -10 -92 -45 -92 -35 0 -45 20 -45 92 0 61 -2 68
-20 68 -18 0 -20 -7 -20 -65z"/>
<path d="M2009 2973 c4 -65 4 -65 -76 10 l-41 40 -4 -82 c-3 -75 -2 -81 17
-81 18 0 20 6 17 57 l-4 58 60 -59 60 -59 4 87 c3 80 2 86 -17 86 -18 0 -20
-5 -16 -57z"/>
<path d="M2108 2945 c-3 -82 -2 -85 20 -85 21 0 22 4 22 85 0 77 -2 85 -19 85
-18 0 -20 -9 -23 -85z"/>
<path d="M2238 2950 c20 -44 39 -80 42 -80 4 0 23 36 43 80 26 59 32 80 21 80
-8 0 -13 -3 -12 -7 4 -12 -33 -103 -41 -103 -4 0 -16 25 -26 55 -16 44 -23 55
-41 55 -22 0 -21 -2 14 -80z"/>
<path d="M2408 2945 l-3 -85 58 0 c47 0 57 3 57 17 0 13 -3 14 -12 5 -7 -7
-22 -12 -35 -12 -20 0 -23 5 -23 36 0 33 2 36 25 32 16 -3 25 -1 25 7 0 8 -9
10 -25 7 -23 -4 -25 -1 -25 33 0 36 1 37 30 33 17 -3 30 -1 30 4 0 4 -22 8
-49 8 l-50 0 -3 -85z"/>
<path d="M2575 2945 c0 -78 2 -85 20 -85 18 0 20 5 17 71 -4 75 3 94 31 83 21
-8 22 -47 2 -64 -12 -10 -12 -15 2 -38 20 -33 42 -52 60 -52 9 0 6 12 -11 37
-23 33 -24 39 -11 53 35 39 -1 80 -70 80 l-40 0 0 -85z"/>
<path d="M2776 3014 c-28 -28 -21 -44 36 -87 24 -17 35 -33 32 -42 -8 -21 -61
-19 -74 3 -10 15 -10 15 -8 -3 2 -14 12 -21 35 -23 80 -8 100 50 33 94 -49 33
-50 60 -2 58 18 -1 32 2 32 7 0 15 -68 10 -84 -7z"/>
<path d="M2925 2945 c0 -78 2 -85 20 -85 18 0 20 7 20 85 0 78 -2 85 -20 85
-18 0 -20 -7 -20 -85z"/>
<path d="M3010 3020 c0 -5 13 -7 30 -3 l30 6 0 -82 c0 -74 2 -81 20 -81 18 0
20 7 20 81 l0 81 25 -4 c14 -3 25 -1 25 3 0 5 -34 9 -75 9 -42 0 -75 -4 -75
-10z"/>
<path d="M3221 2985 c25 -37 30 -54 27 -85 -3 -36 -1 -40 19 -40 20 0 23 5 23
43 0 29 8 54 25 79 27 40 30 48 17 48 -5 0 -17 -18 -27 -40 -10 -22 -21 -40
-25 -40 -9 0 -36 61 -32 73 1 4 -11 7 -28 7 l-29 0 30 -45z"/>
<path d="M1967 2711 c-18 -22 -27 -44 -27 -68 0 -35 0 -36 20 -18 22 20 43 76
38 102 -2 13 -9 10 -31 -16z"/>
<path d="M3005 2704 c3 -21 16 -52 28 -69 l22 -30 3 29 c4 37 -15 84 -41 97
-18 10 -19 9 -12 -27z"/>
<path d="M1870 2587 c0 -60 41 -91 95 -71 18 7 50 63 40 72 -10 11 -59 -22
-72 -48 -13 -25 -13 -25 -13 8 0 41 -16 72 -35 72 -10 0 -15 -11 -15 -33z"/>
<path d="M3092 2595 c-7 -14 -12 -36 -12 -48 -1 -20 -2 -20 -16 5 -13 26 -58
47 -70 35 -7 -7 11 -40 32 -61 21 -21 67 -20 87 2 21 23 23 92 4 92 -8 0 -19
-11 -25 -25z"/>
<path d="M2250 2519 c0 -11 -7 -22 -16 -26 -17 -6 -17 -49 2 -239 l7 -62 81
-4 c58 -4 95 -12 129 -28 l47 -24 48 24 c33 16 70 24 128 28 l81 4 7 62 c19
190 19 233 2 239 -9 4 -16 15 -16 26 0 17 -5 19 -37 14 -65 -9 -130 -33 -172
-64 l-41 -29 -41 29 c-42 31 -107 55 -171 64 -33 5 -38 3 -38 -14z m121 -14
c24 -9 61 -27 82 -42 l37 -26 0 -140 0 -140 -22 20 c-29 27 -92 58 -144 72
l-41 11 -12 113 c-15 156 -17 147 23 147 18 0 53 -7 77 -15z m369 -2 c0 -9 -5
-68 -11 -130 l-12 -113 -41 -11 c-52 -14 -115 -45 -143 -72 l-23 -20 0 139 0
140 32 24 c71 52 198 80 198 43z m-486 -60 c3 -21 8 -73 12 -115 l6 -77 47
-11 c25 -6 66 -23 91 -36 26 -14 34 -22 20 -19 -14 4 -59 9 -101 12 l-77 5 -5
52 c-16 138 -19 226 -9 226 6 0 13 -17 16 -37z m512 -50 c-4 -49 -10 -111 -13
-139 l-5 -52 -77 -5 c-42 -3 -87 -8 -101 -12 -14 -3 -6 5 20 19 25 13 66 30
91 36 l47 11 6 77 c10 115 17 152 28 152 7 0 9 -29 4 -87z"/>
<path d="M1843 2423 c9 -54 67 -99 67 -53 0 41 -36 90 -67 90 -3 0 -3 -17 0
-37z"/>
<path d="M2170 2444 c0 -39 33 -280 39 -287 4 -4 71 -18 149 -32 l142 -25 142
25 c78 14 145 28 149 32 6 7 39 248 39 287 0 9 -6 16 -14 16 -9 0 -15 -23 -20
-82 -3 -46 -9 -111 -13 -145 l-6 -63 -76 0 c-60 0 -87 -5 -129 -25 -30 -14
-62 -25 -72 -25 -10 0 -42 11 -72 25 -42 20 -69 25 -129 25 l-76 0 -6 63 c-4
34 -10 99 -13 145 -5 59 -11 82 -20 82 -8 0 -14 -7 -14 -16z"/>
<path d="M3125 2443 c-32 -32 -46 -93 -21 -93 22 0 56 49 56 81 0 33 -11 37
-35 12z"/>
<path d="M1942 2427 c-26 -28 -31 -83 -6 -73 9 3 17 6 20 6 7 0 34 59 34 75 0
22 -23 18 -48 -8z"/>
<path d="M3010 2434 c0 -30 39 -83 63 -84 16 0 6 57 -13 78 -24 26 -50 29 -50
6z"/>
<path d="M1977 2309 c-24 -14 -39 -54 -31 -84 9 -36 41 -15 54 36 13 46 4 63
-23 48z"/>
<path d="M3000 2282 c0 -28 7 -45 24 -62 l25 -23 7 27 c8 33 -8 71 -36 86 -19
10 -20 8 -20 -28z"/>
<path d="M1840 2285 c0 -2 7 -20 16 -39 18 -37 61 -63 76 -48 13 13 -16 68
-41 82 -20 10 -51 14 -51 5z"/>
<path d="M3096 2265 c-26 -28 -39 -62 -26 -70 19 -12 62 17 75 50 19 44 19 45
-5 45 -12 0 -31 -11 -44 -25z"/>
<path d="M2024 2182 c-30 -20 -39 -91 -15 -115 14 -14 41 35 41 75 0 38 -9 51
-26 40z"/>
<path d="M2956 2174 c-14 -36 5 -104 30 -104 27 0 32 64 8 98 -18 26 -30 28
-38 6z"/>
<path d="M1880 2121 c0 -5 12 -23 26 -40 19 -24 34 -31 60 -31 42 0 42 8 3 48
-30 31 -89 46 -89 23z"/>
<path d="M3029 2093 l-33 -38 34 -3 c28 -3 40 2 62 27 35 40 35 51 -1 51 -21
0 -38 -10 -62 -37z"/>
<path d="M2080 2059 c-6 -11 -10 -36 -9 -54 4 -43 -4 -51 -33 -31 -26 18 -74
21 -83 5 -9 -14 20 -44 56 -59 23 -10 36 -10 56 -1 25 11 30 9 67 -28 l40 -40
-36 11 c-40 12 -88 4 -88 -15 0 -18 53 -47 88 -47 32 0 58 22 47 40 -5 9 71
-40 105 -68 3 -2 -11 -1 -30 2 -35 6 -80 -9 -87 -30 -8 -24 94 -46 123 -26 6
4 15 14 20 23 8 14 16 13 78 -9 l69 -26 -74 -24 c-81 -27 -85 -29 -76 -38 4
-4 42 5 86 20 99 32 113 32 199 1 76 -27 92 -30 92 -16 0 6 -35 20 -77 33
l-77 24 69 25 70 26 19 -25 c17 -21 25 -24 68 -20 61 6 79 21 55 46 -12 11
-32 17 -62 16 l-44 -1 67 48 c78 55 149 126 151 152 4 65 3 80 -11 94 -15 14
-17 13 -28 -7 -12 -22 -10 -80 4 -111 5 -12 -5 -26 -36 -50 -24 -18 -37 -26
-30 -17 17 21 19 75 3 91 -9 9 -16 6 -32 -13 -15 -19 -19 -36 -16 -72 4 -51 9
-45 -70 -95 l-28 -18 28 33 c28 34 34 66 18 91 -8 13 -12 13 -26 1 -27 -22
-47 -71 -43 -101 4 -27 1 -30 -51 -51 -73 -29 -141 -29 -216 0 -60 23 -60 23
-57 60 3 30 -3 44 -27 72 -25 29 -32 33 -41 20 -16 -24 -12 -55 13 -86 l22
-29 -45 27 c-45 26 -45 27 -42 75 4 52 -23 103 -46 89 -15 -9 -15 -61 -1 -89
8 -14 -2 -9 -29 16 -39 38 -39 39 -25 69 13 25 13 37 4 69 -13 44 -25 49 -41
18z"/>
<path d="M2948 1961 c-28 -26 -31 -32 -18 -41 23 -15 44 -12 81 13 43 29 44
51 2 55 -24 2 -40 -4 -65 -27z"/>
<path d="M2845 1854 c-39 -20 -40 -21 -25 -39 18 -21 67 -19 108 7 32 20 33
22 16 35 -24 17 -62 16 -99 -3z"/>
<path d="M2370 1500 c-12 -8 -12 -10 -1 -10 9 0 12 -9 9 -30 -3 -20 0 -30 9
-30 9 0 13 13 13 40 0 42 -5 46 -30 30z"/>
<path d="M2440 1490 c0 -11 7 -23 15 -26 20 -8 19 -21 -2 -27 -17 -4 -17 -5 0
-6 25 -1 44 43 27 64 -18 21 -40 19 -40 -5z m30 -5 c0 -8 -4 -15 -10 -15 -5 0
-10 7 -10 15 0 8 5 15 10 15 6 0 10 -7 10 -15z"/>
<path d="M2517 1478 c-6 -40 -2 -48 23 -48 15 0 19 7 18 40 0 31 -4 40 -18 40
-12 0 -19 -10 -23 -32z m33 12 c0 -5 -4 -10 -10 -10 -5 0 -10 5 -10 10 0 6 5
10 10 10 6 0 10 -4 10 -10z m0 -41 c0 -5 -4 -9 -10 -9 -5 0 -10 7 -10 16 0 8
5 12 10 9 6 -3 10 -10 10 -16z"/>
<path d="M2594 1485 c-8 -34 2 -57 23 -53 26 5 29 38 4 45 -11 3 -18 10 -15
15 3 5 13 7 21 4 8 -3 11 -1 8 4 -12 19 -35 10 -41 -15z m34 -34 c3 -8 -1 -12
-9 -9 -7 2 -15 10 -17 17 -3 8 1 12 9 9 7 -2 15 -10 17 -17z"/>
</g>
</svg>
